<svg width="144" height="43" viewBox="0 0 144 43" fill="none" xmlns="http://www.w3.org/2000/svg">
<path d="M129.628 42.0169C128.306 42.0169 126.952 41.8848 125.565 41.6205C124.211 41.3893 122.923 41.0095 121.701 40.481C120.512 39.9856 119.488 39.3415 118.629 38.5488L120.66 32.455C121.717 33.545 123.038 34.3542 124.624 34.8827C126.209 35.4441 127.778 35.7249 129.33 35.7249C131.081 35.7249 132.534 35.3616 133.69 34.6349C134.879 33.9413 135.771 32.8679 136.365 31.4146C136.993 29.9283 137.356 28.0787 137.455 25.8658L137.753 21.3573H136.663C136.332 23.5372 135.787 25.3208 135.028 26.708C134.301 28.0952 133.36 29.1191 132.204 29.7797C131.081 30.4072 129.743 30.721 128.191 30.721C126.308 30.721 124.723 30.2421 123.435 29.2843C122.146 28.3264 121.172 26.8897 120.512 24.974C119.884 23.0583 119.57 20.6968 119.57 17.8893V6.98981H126.704V16.1553C126.704 19.227 127.051 21.4399 127.745 22.7941C128.438 24.1483 129.495 24.8254 130.916 24.8254C131.675 24.8254 132.369 24.6272 132.996 24.2309C133.624 23.8015 134.152 23.1904 134.582 22.3978C135.044 21.6051 135.391 20.6472 135.622 19.5242C135.886 18.3682 136.019 17.0636 136.019 15.6103V6.98981H143.153V26.1135C143.153 28.1943 142.971 30.0935 142.608 31.811C142.245 33.4954 141.7 34.9652 140.973 36.2203C140.279 37.5084 139.388 38.5819 138.298 39.4406C137.208 40.2994 135.936 40.9434 134.483 41.3728C133.063 41.8022 131.444 42.0169 129.628 42.0169Z" fill="black"/>
<path d="M90.3008 41.3233V20.2179V6.98981H96.1964L96.246 14.2231L97.1377 14.2727C97.435 12.5221 97.947 11.0524 98.6736 9.86332C99.4333 8.67428 100.408 7.7825 101.597 7.18798C102.786 6.59346 104.156 6.2962 105.709 6.2962C108.021 6.2962 110.002 6.87421 111.654 8.03022C113.305 9.1532 114.56 10.7551 115.419 12.8359C116.311 14.8837 116.757 17.3113 116.757 20.1188C116.757 22.728 116.361 25.0566 115.568 27.1044C114.775 29.1191 113.586 30.721 112.001 31.9101C110.448 33.0991 108.5 33.6936 106.155 33.6936C104.503 33.6936 103.099 33.3798 101.943 32.7523C100.82 32.1247 99.8791 31.2495 99.1195 30.1265C98.3928 28.9705 97.7818 27.5998 97.2864 26.0144H96.3451C96.5432 26.9062 96.7249 27.8145 96.89 28.7393C97.0552 29.6641 97.1873 30.5724 97.2864 31.4642C97.3855 32.3229 97.435 33.1652 97.435 33.9909V41.3233H90.3008ZM103.677 27.9961C104.866 27.9961 105.874 27.6659 106.7 27.0053C107.525 26.3447 108.153 25.4199 108.582 24.2309C109.045 23.0418 109.276 21.6876 109.276 20.1683C109.276 18.5169 109.045 17.1131 108.582 15.9571C108.12 14.7681 107.459 13.8433 106.601 13.1827C105.742 12.5221 104.718 12.1918 103.529 12.1918C102.472 12.1918 101.564 12.4231 100.804 12.8855C100.044 13.3479 99.4002 13.9589 98.8718 14.7186C98.3763 15.4782 98.013 16.3039 97.7818 17.1957C97.5506 18.0545 97.435 18.8802 97.435 19.6729V20.6142C97.435 21.2417 97.5176 21.9023 97.6827 22.5959C97.8479 23.2565 98.1121 23.9171 98.4754 24.5777C98.8387 25.2052 99.2681 25.7832 99.7635 26.3117C100.259 26.8071 100.837 27.22 101.498 27.5503C102.158 27.8475 102.885 27.9961 103.677 27.9961Z" fill="black"/>
<path d="M60.6914 41.3233V20.2179V6.98981H66.5871L66.6366 14.2231L67.5284 14.2727C67.8256 12.5221 68.3376 11.0524 69.0642 9.86332C69.8239 8.67428 70.7982 7.7825 71.9873 7.18798C73.1763 6.59346 74.547 6.2962 76.0993 6.2962C78.4114 6.2962 80.3931 6.87421 82.0445 8.03022C83.696 9.1532 84.9511 10.7551 85.8098 12.8359C86.7016 14.8837 87.1475 17.3113 87.1475 20.1188C87.1475 22.728 86.7511 25.0566 85.9585 27.1044C85.1658 29.1191 83.9767 30.721 82.3913 31.9101C80.839 33.0991 78.8903 33.6936 76.5452 33.6936C74.8938 33.6936 73.4901 33.3798 72.3341 32.7523C71.2111 32.1247 70.2698 31.2495 69.5101 30.1265C68.7835 28.9705 68.1724 27.5998 67.677 26.0144H66.7357C66.9339 26.9062 67.1155 27.8145 67.2807 28.7393C67.4458 29.6641 67.5779 30.5724 67.677 31.4642C67.7761 32.3229 67.8256 33.1652 67.8256 33.9909V41.3233H60.6914ZM74.0681 27.9961C75.2571 27.9961 76.2645 27.6659 77.0902 27.0053C77.9159 26.3447 78.5435 25.4199 78.9729 24.2309C79.4353 23.0418 79.6665 21.6876 79.6665 20.1683C79.6665 18.5169 79.4353 17.1131 78.9729 15.9571C78.5105 14.7681 77.8499 13.8433 76.9911 13.1827C76.1324 12.5221 75.1085 12.1918 73.9194 12.1918C72.8625 12.1918 71.9542 12.4231 71.1946 12.8855C70.4349 13.3479 69.7908 13.9589 69.2624 14.7186C68.767 15.4782 68.4036 16.3039 68.1724 17.1957C67.9412 18.0545 67.8256 18.8802 67.8256 19.6729V20.6142C67.8256 21.2417 67.9082 21.9023 68.0733 22.5959C68.2385 23.2565 68.5027 23.9171 68.866 24.5777C69.2294 25.2052 69.6587 25.7832 70.1542 26.3117C70.6496 26.8071 71.2276 27.22 71.8882 27.5503C72.5488 27.8475 73.2754 27.9961 74.0681 27.9961Z" fill="black"/>
<path d="M39.787 33.6936C38.3337 33.6936 37.0456 33.4129 35.9226 32.8514C34.7996 32.2569 33.9243 31.4146 33.2968 30.3247C32.6692 29.2347 32.3555 27.8805 32.3555 26.2621C32.3555 24.8419 32.6197 23.6529 33.1482 22.695C33.7096 21.7372 34.5189 20.961 35.5758 20.3665C36.6327 19.772 37.9373 19.2765 39.4897 18.8802C41.0421 18.4838 42.8091 18.137 44.7908 17.8398C45.8477 17.6746 46.7065 17.526 47.3671 17.3939C48.0607 17.2287 48.5726 16.981 48.9029 16.6507C49.2332 16.2874 49.3983 15.7755 49.3983 15.1149C49.3983 14.1901 49.0681 13.3974 48.4075 12.7368C47.7469 12.0762 46.7065 11.746 45.2863 11.746C44.3284 11.746 43.4366 11.9111 42.6109 12.2414C41.8182 12.5717 41.1246 13.0671 40.5301 13.7277C39.9686 14.3883 39.5558 15.2305 39.2915 16.2544L32.9995 14.3222C33.3959 12.968 33.9574 11.7955 34.684 10.8046C35.4437 9.81378 36.352 8.98805 37.4089 8.32748C38.4658 7.63387 39.6714 7.12192 41.0255 6.79164C42.3797 6.46135 43.8495 6.2962 45.4349 6.2962C47.9781 6.2962 50.0424 6.70906 51.6278 7.53479C53.2462 8.32748 54.4518 9.58257 55.2444 11.3001C56.0371 12.9845 56.4335 15.1644 56.4335 17.8398V22.2987C56.4335 23.4547 56.45 24.6272 56.483 25.8162C56.5491 27.0053 56.6151 28.2108 56.6812 29.4329C56.7803 30.6219 56.8794 31.811 56.9785 33H50.6865C50.5544 32.1743 50.4222 31.233 50.2901 30.176C50.191 29.0861 50.1085 27.9961 50.0424 26.9062H49.1506C48.6882 28.1613 48.0276 29.3008 47.1689 30.3247C46.3101 31.3486 45.2532 32.1743 43.9981 32.8018C42.7761 33.3964 41.3723 33.6936 39.787 33.6936ZM42.8091 28.5411C43.4366 28.5411 44.0642 28.4255 44.6917 28.1943C45.3523 27.9631 45.9799 27.6493 46.5744 27.253C47.2019 26.8236 47.7634 26.2952 48.2588 25.6676C48.7873 25.0401 49.2167 24.3299 49.547 23.5373L49.4479 19.3756L50.5874 19.6233C49.9929 20.0527 49.2993 20.3995 48.5066 20.6637C47.7139 20.8949 46.8882 21.0766 46.0294 21.2087C45.2037 21.3408 44.378 21.4895 43.5522 21.6546C42.7265 21.8198 41.9834 22.0344 41.3228 22.2987C40.6952 22.5629 40.1833 22.9262 39.787 23.3886C39.4236 23.818 39.242 24.429 39.242 25.2217C39.242 26.2456 39.5723 27.0548 40.2328 27.6493C40.8934 28.2439 41.7522 28.5411 42.8091 28.5411Z" fill="black"/>
<path d="M21.7647 33V0.301468H28.8494V33H21.7647ZM0.3125 33V0.301468H7.44673V33H0.3125ZM4.52367 19.3756V13.5295H24.5887V19.3756H4.52367Z" fill="black"/>
</svg>
