<svg width="119" height="46" viewBox="0 0 119 46" fill="none" xmlns="http://www.w3.org/2000/svg">
<path d="M104.573 45.3224C103.252 45.3224 101.897 45.1903 100.51 44.9261C99.1561 44.6949 97.868 44.3151 96.6459 43.7866C95.4569 43.2912 94.433 42.6471 93.5742 41.8544L95.6055 35.7606C96.6624 36.8506 97.9836 37.6598 99.569 38.1882C101.154 38.7497 102.723 39.0305 104.276 39.0305C106.026 39.0305 107.479 38.6671 108.635 37.9405C109.824 37.2469 110.716 36.1735 111.311 34.7202C111.938 33.2339 112.302 31.3843 112.401 29.1714L112.698 24.6629H111.608C111.278 26.8428 110.733 28.6264 109.973 30.0136C109.246 31.4008 108.305 32.4247 107.149 33.0853C106.026 33.7128 104.688 34.0266 103.136 34.0266C101.253 34.0266 99.668 33.5477 98.3799 32.5898C97.0918 31.632 96.1174 30.1952 95.4569 28.2796C94.8293 26.3639 94.5155 24.0023 94.5155 21.1949V10.2954H101.65V19.4609C101.65 22.5326 101.997 24.7455 102.69 26.0997C103.384 27.4539 104.441 28.1309 105.861 28.1309C106.621 28.1309 107.314 27.9328 107.942 27.5364C108.569 27.107 109.098 26.496 109.527 25.7033C109.99 24.9106 110.336 23.9528 110.568 22.8298C110.832 21.6738 110.964 20.3692 110.964 18.9159V10.2954H118.098V29.4191C118.098 31.4999 117.916 33.399 117.553 35.1165C117.19 36.801 116.645 38.2708 115.918 39.5259C115.225 40.814 114.333 41.8875 113.243 42.7462C112.153 43.6049 110.881 44.249 109.428 44.6784C108.008 45.1078 106.389 45.3224 104.573 45.3224Z" fill="black"/>
<path d="M86.6669 36.9001C83.7603 36.9001 81.6135 36.1404 80.2262 34.6211C78.8721 33.0687 78.195 30.6081 78.195 27.2392V15.8938H74.4297L74.5288 10.2954H77.1546C78.1785 10.2954 78.9381 10.1467 79.4336 9.84948C79.929 9.55222 80.2262 9.00724 80.3253 8.21455L80.9694 4.49881H85.0319V10.2954H91.6212V16.0919H85.0319V26.9419C85.0319 28.1309 85.3127 28.9897 85.8742 29.5181C86.4357 30.0466 87.2944 30.3108 88.4504 30.3108C89.078 30.3108 89.6725 30.2448 90.234 30.1127C90.8285 29.9805 91.3404 29.7659 91.7698 29.4686V36.1074C90.7459 36.4377 89.8046 36.6524 88.9459 36.7515C88.0871 36.8505 87.3274 36.9001 86.6669 36.9001Z" fill="black"/>
<path d="M60.5496 36.3056V19.6591H56.4375V14.4075L63.3736 14.7047V13.7634C62.2175 13.4992 61.2597 13.0863 60.5 12.5248C59.7734 11.9303 59.2449 11.2202 58.9147 10.3945C58.5844 9.56875 58.4192 8.69348 58.4192 7.76868C58.4192 6.34844 58.7825 5.12637 59.5092 4.10248C60.2358 3.04555 61.2597 2.23635 62.5809 1.67486C63.902 1.08034 65.4544 0.783081 67.2379 0.783081C68.7572 0.783081 70.1279 0.981254 71.35 1.3776C72.6051 1.74092 73.6125 2.20332 74.3721 2.76481L73.9263 9.20543C73.1336 8.64394 72.2418 8.18154 71.2509 7.81822C70.2601 7.4549 69.3187 7.27324 68.427 7.27324C67.4361 7.27324 66.6104 7.53747 65.9498 8.06593C65.3223 8.5944 65.0085 9.45315 65.0085 10.6422C65.0085 11.4679 65.1736 12.1285 65.5039 12.6239C65.8672 13.0863 66.2966 13.4331 66.792 13.6643C67.3205 13.8625 67.8324 13.9946 68.3279 14.0607H74.2731V19.6591H67.4856V36.3056H60.5496Z" fill="black"/>
<path d="M37.662 36.9992C36.2087 36.9992 34.9206 36.7184 33.7976 36.157C32.6746 35.5624 31.7993 34.7202 31.1718 33.6302C30.5442 32.5403 30.2305 31.1861 30.2305 29.5677C30.2305 28.1475 30.4947 26.9584 31.0232 26.0006C31.5847 25.0428 32.3939 24.2666 33.4508 23.6721C34.5077 23.0775 35.8123 22.5821 37.3647 22.1858C38.9171 21.7894 40.6841 21.4426 42.6658 21.1453C43.7227 20.9802 44.5815 20.8316 45.2421 20.6995C45.9357 20.5343 46.4476 20.2866 46.7779 19.9563C47.1082 19.593 47.2733 19.081 47.2733 18.4205C47.2733 17.4957 46.9431 16.703 46.2825 16.0424C45.6219 15.3818 44.5815 15.0515 43.1613 15.0515C42.2034 15.0515 41.3116 15.2167 40.4859 15.547C39.6932 15.8773 38.9996 16.3727 38.4051 17.0333C37.8436 17.6938 37.4308 18.5361 37.1665 19.56L30.8745 17.6278C31.2709 16.2736 31.8324 15.1011 32.559 14.1102C33.3187 13.1193 34.227 12.2936 35.2839 11.633C36.3408 10.9394 37.5464 10.4275 38.9005 10.0972C40.2547 9.76692 41.7245 9.60178 43.3099 9.60178C45.8531 9.60178 47.9174 10.0146 49.5028 10.8404C51.1212 11.6331 52.3268 12.8881 53.1194 14.6056C53.9121 16.2901 54.3085 18.47 54.3085 21.1453V25.6042C54.3085 26.7602 54.325 27.9328 54.358 29.1218C54.4241 30.3108 54.4901 31.5164 54.5562 32.7385C54.6553 33.9275 54.7544 35.1165 54.8535 36.3056H48.5615C48.4294 35.4799 48.2972 34.5385 48.1651 33.4816C48.066 32.3917 47.9835 31.3017 47.9174 30.2118H47.0256C46.5632 31.4669 45.9026 32.6064 45.0439 33.6302C44.1851 34.6541 43.1282 35.4799 41.8731 36.1074C40.6511 36.7019 39.2473 36.9992 37.662 36.9992ZM40.6841 31.8467C41.3116 31.8467 41.9392 31.7311 42.5667 31.4999C43.2273 31.2687 43.8549 30.9549 44.4494 30.5586C45.0769 30.1292 45.6384 29.6007 46.1339 28.9732C46.6623 28.3456 47.0917 27.6355 47.422 26.8428L47.3229 22.6812L48.4624 22.9289C47.8679 23.3583 47.1743 23.7051 46.3816 23.9693C45.5889 24.2005 44.7632 24.3822 43.9044 24.5143C43.0787 24.6464 42.253 24.795 41.4272 24.9602C40.6015 25.1253 39.8584 25.34 39.1978 25.6042C38.5702 25.8685 38.0583 26.2318 37.662 26.6942C37.2986 27.1236 37.117 27.7346 37.117 28.5273C37.117 29.5512 37.4473 30.3604 38.1078 30.9549C38.7684 31.5494 39.6272 31.8467 40.6841 31.8467Z" fill="black"/>
<path d="M0.371094 36.3056V3.60704H13.6487C15.4322 3.60704 17.0506 3.75567 18.5039 4.05293C19.9572 4.31716 21.2453 4.71351 22.3683 5.24197C23.4913 5.77043 24.4326 6.431 25.1923 7.2237C25.9849 7.98336 26.5795 8.87514 26.9758 9.89903C27.3722 10.8899 27.5703 11.9964 27.5703 13.2184C27.5703 14.3744 27.3887 15.4314 27.0254 16.3892C26.662 17.314 26.1171 18.1232 25.3904 18.8168C24.6638 19.5104 23.7555 20.0884 22.6655 20.5508C21.5756 20.9802 20.304 21.2775 18.8507 21.4426V22.1858C20.5352 22.3509 21.8729 22.7472 22.8637 23.3748C23.8876 23.9693 24.6803 24.7785 25.2418 25.8024C25.8363 26.8263 26.3483 28.0979 26.7776 29.6172L28.7594 36.3056H20.882L19.3462 30.1127C19.0489 28.7915 18.6195 27.7676 18.058 27.041C17.4965 26.2813 16.7864 25.7529 15.9277 25.4556C15.0689 25.1253 14.0285 24.9602 12.8064 24.9602H7.50532V36.3056H0.371094ZM7.50532 19.6095H13.1532C15.3992 19.6095 17.1332 19.1801 18.3553 18.3214C19.5774 17.4626 20.1884 16.125 20.1884 14.3084C20.1884 12.5248 19.6104 11.2202 18.4544 10.3945C17.3314 9.53571 15.6304 9.10634 13.3514 9.10634H7.50532V19.6095Z" fill="black"/>
</svg>
